<svg version="1.1" xmlns="http://www.w3.org/2000/svg" width="32" height="32" viewBox="0 0 32 32">
<title>labels</title>
<path d="M20.413 3.775c-0.287-0.018-0.574 0.024-0.844 0.124-0.268 0.099-0.512 0.253-0.717 0.452l-12.954 12.954c-0.191 0.19-0.343 0.417-0.446 0.666s-0.156 0.516-0.156 0.785c0 0.269 0.053 0.536 0.156 0.785s0.255 0.475 0.445 0.666l7.423 7.423c0.386 0.384 0.909 0.6 1.453 0.6s1.066-0.215 1.453-0.599l12.963-12.963c0.206-0.203 0.367-0.448 0.471-0.717s0.152-0.557 0.137-0.845l-0-0.002-0.384-7.029c-0.033-0.501-0.249-0.973-0.607-1.326-0.359-0.354-0.836-0.563-1.339-0.587l-0.007-0-7.049-0.385zM12.546 28.409l-0.777 0.777-7.424-7.424c-0.395-0.394-0.709-0.863-0.923-1.379s-0.324-1.069-0.324-1.627 0.11-1.111 0.324-1.627c0.214-0.516 0.527-0.984 0.922-1.378l12.969-12.969c0.426-0.415 0.934-0.737 1.492-0.944 0.556-0.206 1.149-0.294 1.742-0.257l7.033 0.384c1.042 0.052 2.029 0.485 2.772 1.217s1.192 1.714 1.258 2.757l0.001 0.010 0.385 7.045c0.030 0.598-0.067 1.196-0.284 1.754-0.217 0.557-0.548 1.062-0.973 1.482l-12.959 12.959c-0.798 0.794-1.878 1.24-3.004 1.24s-2.206-0.446-3.004-1.24l0.775-0.779zM22.845 12.861c1.509 0 2.731-1.223 2.731-2.731s-1.223-2.731-2.731-2.731c-1.509 0-2.731 1.223-2.731 2.731s1.223 2.731 2.731 2.731zM16.577 14.886c0.429-0.43 0.429-1.125-0.001-1.554s-1.125-0.429-1.555 0.001l-4.616 4.622c-0.429 0.43-0.429 1.125 0.001 1.555s1.125 0.429 1.555-0.001l4.616-4.622zM20.551 17.311c0.429 0.429 0.429 1.125 0 1.555l-4.616 4.616c-0.429 0.429-1.125 0.429-1.555 0s-0.429-1.125 0-1.555l4.616-4.616c0.429-0.429 1.125-0.429 1.555 0zM3.177 5.316l11.341-2.85-3.027 3.027-7.778 1.954c-0.515 0.129-0.957 0.457-1.23 0.912s-0.354 1-0.225 1.514l0.971 3.882-0.439 0.439c-0.523 0.523-0.952 1.131-1.268 1.797l-1.396-5.585c-0.27-1.080-0.101-2.223 0.472-3.178s1.5-1.643 2.58-1.914z"></path>
</svg>