<svg version="1.1" xmlns="http://www.w3.org/2000/svg" width="32" height="32" viewBox="0 0 32 32" fill="currentColor">
  <title>Milestones</title>
  <path d="M11.114 21.827c-0.044 0.009-0.088 0.018-0.132 0.028-0.66 0.142-1.328 0.337-1.879 0.618-0.273 0.139-0.619 0.349-0.921 0.668-0.311 0.327-0.682 0.889-0.682 1.66s0.371 1.333 0.682 1.66c0.302 0.318 0.648 0.529 0.921 0.668 0.552 0.281 1.22 0.476 1.879 0.618 1.352 0.291 3.125 0.455 5.017 0.455s3.666-0.164 5.017-0.455c0.66-0.142 1.328-0.337 1.88-0.618 0.273-0.139 0.619-0.349 0.921-0.668 0.311-0.327 0.682-0.889 0.682-1.66s-0.372-1.333-0.682-1.66c-0.302-0.318-0.648-0.529-0.921-0.668-0.552-0.281-1.22-0.476-1.88-0.618-0.246-0.053-0.506-0.102-0.778-0.146-0.439 0.599-0.906 1.209-1.401 1.831 0.585 0.061 1.121 0.141 1.592 0.235 0.126 0.025 0.248 0.052 0.364 0.079 1.059 0.249 1.705 0.581 1.705 0.945s-0.646 0.696-1.705 0.945c-0.117 0.027-0.238 0.054-0.364 0.079-1.161 0.233-2.719 0.376-4.431 0.376s-3.27-0.143-4.431-0.376c-0.126-0.025-0.248-0.052-0.364-0.079-1.059-0.249-1.705-0.581-1.705-0.945s0.646-0.696 1.705-0.945c0.117-0.027 0.238-0.054 0.364-0.079 0.285-0.057 0.594-0.109 0.923-0.154-0.485-0.609-0.945-1.207-1.378-1.794zM21.099 23.554c0 0-0.003 0.002-0.009 0.005 0.006-0.003 0.009-0.005 0.009-0.005zM10.902 23.554c0-0 0.003 0.002 0.009 0.005-0.006-0.003-0.009-0.005-0.009-0.005zM10.902 26.047c-0 0 0.003-0.002 0.009-0.005-0.006 0.003-0.009 0.005-0.009 0.005zM21.099 26.047c-0 0-0.003-0.002-0.009-0.005 0.006 0.003 0.009 0.005 0.009 0.005z"></path>
  <path d="M16.324 22.678c-0.35 0.43-1.031 0.43-1.381 0-4.194-5.144-6.309-9.181-6.309-12.2 0-3.688 3.134-6.678 7-6.678s7 2.99 7 6.678c0 3.019-2.116 7.056-6.309 12.2zM15.633 14.36c1.966 0 3.56-1.594 3.56-3.56s-1.594-3.56-3.56-3.56c-1.966 0-3.56 1.594-3.56 3.56s1.594 3.56 3.56 3.56zM13.522 8.669c0.542-0.537 1.288-0.869 2.112-0.869 1.657 0 3 1.343 3 3 0 0.82-0.329 1.564-0.863 2.105 0.534-0.542 0.863-1.285 0.863-2.105 0-1.657-1.343-3-3-3-0.824 0-1.57 0.332-2.112 0.869z"></path>
</svg>