<svg version="1.1" xmlns="http://www.w3.org/2000/svg" width="32" height="32" fill="#999" viewBox="0 0 32 32" fill="#999">
  <title>Epics</title>
  <path d="M18.34 7.434c0.233 0.175 0.37 0.45 0.37 0.742v2.316l7.565-2.183c0.326-0.094 0.677-0.003 0.916 0.237s0.328 0.592 0.232 0.917l-1.404 4.767 1.401 4.544c0.073 0.238 0.048 0.496-0.070 0.715s-0.32 0.382-0.559 0.451l-8.547 2.467c-0.28 0.081-0.582 0.025-0.816-0.15s-0.37-0.45-0.37-0.742v-2.316l-7.565 2.183c-0.28 0.081-0.582 0.025-0.816-0.15s-0.37-0.45-0.37-0.742v-9.847c0-0.414 0.274-0.777 0.671-0.892l8.547-2.467c0.28-0.081 0.582-0.025 0.816 0.15zM10.164 11.341v4.914l6.69-1.931v-4.914l-6.69 1.931zM18.915 20.279l6.452-1.862-1.205-3.908c-0.046-0.15-0.054-0.31-0.022-0.463l-5.226 1.809v4.424z"></path>
  <path d="M7.248 7.912c0.493-0.325 0.82-0.897 0.82-1.548 0-1.012-0.79-1.833-1.765-1.833s-1.765 0.821-1.765 1.833c0 0.666 0.342 1.248 0.853 1.569v18.608c0 0.513 0.416 0.928 0.929 0.928s0.929-0.416 0.929-0.928v-18.629z"></path>
</svg>