<svg version="1.1" xmlns="http://www.w3.org/2000/svg" width="32" height="32" viewBox="0 0 32 32" fill="#999">
<title>projects</title>
<path d="M30.013 0.069c0.273-0.056 0.557-0.042 0.823 0.042 0.27 0.084 0.514 0.236 0.709 0.441s0.334 0.456 0.404 0.73c0.065 0.255 0.069 0.522 0.011 0.777l-0.936 5.076c-0.657 3.584-2.388 6.883-4.963 9.46l-0.963 0.963c0.054 0.865 0.040 1.737-0.030 2.599-0.296 3.668-1.615 7.382-3.381 9.969l-0.018 0.025c-0.246 0.34-0.564 0.623-0.931 0.826s-0.775 0.322-1.194 0.349-0.839-0.039-1.229-0.194c-0.384-0.152-0.73-0.385-1.014-0.684l-2.547-2.547-2.17 2.17c-0.461 0.461-1.208 0.461-1.668 0l-1.565-1.565c-0.359-0.359-0.448-0.908-0.221-1.363 0.291-0.58 0.391-1.236 0.288-1.876s-0.406-1.231-0.864-1.69c-0.459-0.458-1.050-0.761-1.69-0.864s-1.296-0.003-1.876 0.287c-0.454 0.228-1.003 0.139-1.363-0.22l-1.565-1.565c-0.46-0.46-0.461-1.206-0.001-1.667l2.169-2.173-2.574-2.573c-0.299-0.284-0.532-0.63-0.684-1.014-0.155-0.39-0.221-0.81-0.194-1.229s0.146-0.827 0.349-1.194 0.485-0.685 0.826-0.931l0.025-0.018c2.588-1.765 6.302-3.084 9.969-3.381 0.871-0.070 1.753-0.084 2.628-0.028l0.991-0.993c2.547-2.55 5.804-4.274 9.345-4.945l5.105-0.999zM16.422 26.233l2.558 2.558c0.009 0.009 0.018 0.018 0.027 0.027 0.049 0.052 0.109 0.093 0.176 0.12s0.138 0.038 0.21 0.033c0.072-0.005 0.141-0.025 0.204-0.060 0.060-0.033 0.111-0.078 0.152-0.132 1.513-2.226 2.702-5.533 2.967-8.814l0.002-0.030-6.296 6.296zM12.203 9.38l-0.069 0.005c-3.28 0.265-6.587 1.454-8.813 2.967-0.054 0.041-0.099 0.093-0.132 0.152-0.035 0.063-0.055 0.132-0.060 0.204s0.007 0.143 0.033 0.21c0.026 0.067 0.067 0.127 0.12 0.176 0.009 0.009 0.018 0.018 0.027 0.026l2.583 2.583 6.31-6.324zM28.703 6.708l0.761-4.128-4.113 0.804c-3.076 0.582-5.905 2.079-8.117 4.294l-12.673 12.701 0.183 0.183c0.803-0.251 1.658-0.314 2.496-0.179 1.129 0.183 2.172 0.716 2.981 1.525s1.342 1.852 1.525 2.981c0.136 0.839 0.073 1.693-0.179 2.496l0.182 0.182 12.642-12.642c2.237-2.239 3.741-5.106 4.312-8.219zM23.766 10.988c0 1.466-1.188 2.654-2.654 2.654s-2.654-1.188-2.654-2.654c0-1.466 1.188-2.654 2.654-2.654s2.654 1.188 2.654 2.654zM13.081 15.886c0.461-0.461 1.207-0.461 1.668 0l1.659 1.659c0.461 0.461 0.461 1.208 0 1.668s-1.208 0.461-1.668 0l-1.659-1.66c-0.461-0.461-0.461-1.208 0-1.668zM0.156 31.809c0.841 0.841 5.008-1.954 5.849-2.801 0.227-0.193 0.411-0.43 0.542-0.697s0.205-0.559 0.218-0.856c0.013-0.297-0.036-0.594-0.143-0.871s-0.271-0.53-0.48-0.741c-0.209-0.212-0.46-0.377-0.737-0.487s-0.573-0.162-0.87-0.152c-0.297 0.010-0.589 0.081-0.858 0.209s-0.508 0.31-0.702 0.535c-0.865 0.847-3.66 5.020-2.819 5.861z"></path>
</svg>