<svg version="1.1" xmlns="http://www.w3.org/2000/svg" width="32" height="32" viewBox="0 0 32 32" fill="currentColor">
  <title>Roadmap</title>
  <path d="M3.025 9.137c0-0.948 0.768-1.716 1.716-1.716h8.446c0.948 0 1.716 0.768 1.716 1.716v0c0 0.948-0.768 1.716-1.716 1.716h-8.446c-0.948 0-1.716-0.768-1.716-1.716v0z"></path>
  <path d="M27.045 17.716c0.948 0 1.716-0.768 1.716-1.716s-0.768-1.716-1.716-1.716h-22.304c0 0 0 0 0 0-0.948 0-1.716 0.768-1.716 1.716s0.768 1.716 1.716 1.716h22.304z"></path>
  <path d="M11.925 22.863c0-0.948 0.768-1.716 1.716-1.716h8.446c0.948 0 1.716 0.768 1.716 1.716v0c0 0.948-0.768 1.716-1.716 1.716h-8.446c-0.948 0-1.716-0.768-1.716-1.716v0z"></path>
  <path d="M25.544 22.863c0-0.948 0.768-1.716 1.716-1.716v0c0.948 0 1.716 0.768 1.716 1.716v0c0 0.948-0.768 1.716-1.716 1.716v0c-0.948 0-1.716-0.768-1.716-1.716v0z"></path>
</svg>