<svg version="1.1" xmlns="http://www.w3.org/2000/svg" width="32" height="32" viewBox="0 0 32 32" fill="#999">
  <title>Stories</title>
  <path d="M7.629 20.749v3.024c0 1.091 0.885 1.976 1.976 1.976h16.115c1.091 0 1.976-0.885 1.976-1.976v-9.243c0-0.862-0.552-1.596-1.323-1.865l-0.248 1.803c0.003 0.021 0.005 0.042 0.005 0.063v9.243c0 0.227-0.184 0.411-0.411 0.411h-13.835v-2.85l-4.256-0.585z"></path>
  <path d="M12.324 10.479c-0.428-0.059-0.823 0.241-0.882 0.669s0.241 0.823 0.669 0.882l8.629 1.186c0.428 0.059 0.823-0.241 0.882-0.669s-0.241-0.823-0.669-0.882l-8.629-1.186z"></path>
  <path d="M11.776 14.486c-0.428-0.059-0.823 0.241-0.882 0.669s0.241 0.823 0.669 0.882l5.737 0.787c0.428 0.059 0.823-0.241 0.882-0.669s-0.241-0.823-0.669-0.882l-5.737-0.787z"></path>
  <path d="M7.806 6.269l15.965 2.193c1.081 0.149 1.837 1.145 1.689 2.227l-1.258 9.157c-0.148 1.081-1.145 1.837-2.227 1.689l-15.965-2.193c-1.081-0.148-1.837-1.145-1.689-2.227l1.258-9.157c0.149-1.081 1.145-1.837 2.227-1.689zM8.485 18.102l13.704 1.882c0.225 0.031 0.432-0.126 0.463-0.351l1.258-9.157c0.031-0.225-0.126-0.432-0.351-0.463l-13.704-1.882-1.369 9.971z"></path>
</svg>