<svg xmlns="http://www.w3.org/2000/svg" viewBox="0 0 32 32"><circle cx="15.99" cy="10.78" r="2.92"></circle><path d="M25.29 22.12a6.4 6.4 0 0 0-3-4.07 39.8 39.8 0 0 0 .51-6.54c0-3.54-2.39-7-6.32-9.27a1.06 1.06 0 0 0-1 0C11.57 4.49 9.21 8 9.18 11.5a39.82 39.82 0 0 0 .52 6.55 6.4 6.4 0 0 0-3 4.06 11.94 11.94 0 0 0 .62 7.5 1 1 0 0 0 1.68.27l3.81-3.46h6.35L23 29.88a1 1 0 0 0 1.69-.26 11.94 11.94 0 0 0 .6-7.5zm-6.2 2.36h-6.21c-1.35-6.41-1.78-9.63-1.75-13C11.15 8.81 13 6.11 16 4.21c3 1.9 4.84 4.61 4.86 7.31.01 3.33-.42 6.54-1.76 12.96z"></path></svg>